<?xml version="1.0" standalone="no"?>
<!DOCTYPE svg PUBLIC "-//W3C//DTD SVG 20010904//EN"
 "http://www.w3.org/TR/2001/REC-SVG-20010904/DTD/svg10.dtd">
<svg version="1.0" xmlns="http://www.w3.org/2000/svg"
 width="500.000000pt" height="500.000000pt" viewBox="0 0 500.000000 500.000000"
 preserveAspectRatio="xMidYMid meet">

<g transform="translate(0.000000,500.000000) scale(0.100000,-0.100000)"
fill="#000000" stroke="none">
<path d="M3990 4316 c0 -32 -3 -35 -32 -38 -18 -2 -33 -7 -33 -13 0 -5 15 -11
33 -13 30 -3 32 -5 32 -43 0 -52 24 -48 28 4 3 32 6 36 35 39 41 4 41 22 0 26
-27 3 -32 7 -35 34 -4 45 -28 49 -28 4z"/>
<path d="M1630 4283 c-143 -15 -217 -58 -284 -167 -24 -39 -47 -81 -51 -93 -7
-25 -20 -30 -31 -11 -5 7 -3 8 6 3 9 -5 11 -4 6 4 -6 9 -11 9 -22 0 -11 -9
-21 -9 -40 0 -61 27 -158 0 -207 -58 -31 -37 -35 -51 -40 -138 -2 -40 -9 -69
-20 -81 -16 -17 -17 -97 -17 -1075 0 -1050 0 -1057 -20 -1057 -14 0 -20 7 -20
24 0 19 -16 36 -35 36 -2 0 -6 -14 -10 -30 -5 -25 -11 -30 -36 -30 -22 0 -29
-5 -29 -20 0 -16 7 -20 30 -20 25 0 30 -4 30 -24 0 -14 4 -27 9 -30 16 -10 40
5 43 27 2 12 10 22 18 22 13 0 15 -30 18 -198 2 -176 5 -201 22 -230 18 -28
20 -50 20 -200 l0 -169 63 -90 c34 -49 68 -98 76 -109 13 -18 11 -19 -65 -19
l-79 0 -42 49 c-40 47 -104 85 -152 92 -45 7 -31 -16 21 -35 30 -10 70 -36 97
-62 l46 -44 -56 0 c-41 0 -60 5 -70 17 -15 18 -70 43 -94 43 -21 0 -19 -19 3
-26 9 -3 28 -11 42 -17 22 -10 17 -12 -50 -17 -41 -3 -75 -9 -75 -15 0 -7 669
-11 1983 -13 1758 -2 1982 0 1982 13 0 12 -16 15 -86 15 -92 0 -101 9 -33 37
41 16 52 33 22 33 -22 0 -85 -37 -96 -56 -9 -16 -117 -20 -117 -5 0 5 19 26
43 48 38 35 62 48 120 67 32 10 19 28 -15 21 -57 -13 -105 -43 -150 -95 l-43
-50 -115 0 -115 1 103 97 c86 83 102 103 102 129 l0 31 91 4 c85 3 92 5 115
32 l25 28 -2 314 -1 314 26 50 c18 34 21 48 11 44 -12 -5 -12 -1 1 26 14 27
16 71 15 281 -2 207 1 253 13 271 21 30 5 53 -49 69 -25 7 -45 17 -45 22 0 4
-4 6 -9 2 -5 -3 -12 -1 -16 5 -3 5 -18 10 -32 10 l-27 0 30 31 c16 17 43 38
61 45 29 13 31 17 35 74 1 33 0 60 -4 60 -12 0 -38 31 -38 45 0 22 31 47 51
42 11 -3 19 -2 20 1 5 42 4 54 -9 64 -8 7 -18 23 -23 35 -5 13 -19 27 -31 32
-13 5 -32 18 -43 30 -11 11 -31 32 -44 45 -16 17 -20 26 -11 31 8 5 2 18 -21
41 -18 19 -29 34 -25 34 5 0 -2 9 -15 20 l-24 19 133 2 c72 1 136 2 141 3 4 0
25 21 46 46 35 42 37 47 33 105 -3 45 -19 94 -61 193 l-57 132 0 155 c0 148
-1 155 -24 182 l-24 28 -223 8 c-123 4 -224 9 -225 10 -1 1 -4 32 -6 68 -5 70
-13 83 -82 148 -21 20 -48 56 -59 81 -28 59 -106 136 -162 161 -25 11 -82 24
-127 29 -77 9 -1837 12 -1918 3z m1993 -46 c22 -9 -190 -12 -1000 -10 -952 2
-1032 1 -1078 -15 -42 -14 -50 -21 -50 -42 0 -20 -4 -25 -24 -22 -31 3 -59
-22 -85 -78 -21 -45 -21 -51 -26 -1244 -3 -786 -8 -1200 -15 -1203 -7 -2 -10
402 -10 1200 l0 1202 24 49 c42 84 90 129 176 163 44 17 2048 17 2088 0z
m-1928 -78 c11 -17 -2 -23 -62 -26 -34 -1 -63 -9 -74 -19 -25 -23 -46 -8 -23
17 28 31 145 52 159 28z m63 -6 c-4 -20 -18 -26 -37 -14 -18 12 -5 31 20 31
14 0 19 -6 17 -17z m1032 -13 c17 -11 13 -15 -22 -24 -30 -7 -49 11 -27 25 18
11 30 11 49 -1z m440 -5 c0 -12 -369 -24 -377 -12 -14 23 19 27 193 25 114 -2
184 -7 184 -13z m-2079 -154 c-11 -7 -9 -14 9 -39 27 -36 43 -121 27 -140 -5
-7 -10 -26 -9 -42 0 -24 -4 -30 -21 -31 -17 -1 -18 -2 -4 -6 9 -2 17 -11 17
-18 0 -10 -22 -14 -82 -17 -46 -2 -86 1 -89 5 -3 4 -4 52 -2 105 5 106 18 139
69 173 16 10 45 19 64 19 24 0 31 -3 21 -9z m854 -83 c6 -3 93 -2 195 3 121 5
188 5 196 -2 7 -5 15 -6 17 -2 7 11 184 16 200 6 10 -7 573 -15 712 -10 28 1
83 1 123 0 64 -2 75 -5 97 -29 14 -15 28 -39 32 -52 3 -14 4 -346 1 -737 -5
-611 -8 -716 -20 -734 -15 -21 -15 -21 -21 9 -4 16 -7 325 -7 686 0 725 2 700
-64 747 l-31 22 -843 3 c-821 2 -845 2 -888 -17 -35 -16 -49 -30 -64 -63 -19
-41 -20 -72 -20 -849 0 -443 -3 -827 -6 -853 -23 -162 -32 89 -41 1070 l-6
730 31 35 c17 19 32 28 32 22 0 -7 4 -13 10 -13 5 0 7 6 5 13 -4 9 11 13 52
15 32 2 59 4 60 5 5 5 240 1 248 -5z m1456 -159 l29 -31 0 -1006 0 -1007 -31
38 c-25 30 -37 37 -67 37 -67 0 -82 9 -82 45 0 55 -19 65 -123 65 -84 0 -98 3
-157 33 l-65 32 159 3 c97 1 165 7 173 13 9 8 13 41 13 114 0 85 -3 104 -16
109 -9 3 -335 6 -724 6 l-709 0 -12 -21 c-11 -22 -6 -189 6 -210 4 -5 179 -9
445 -9 l439 0 16 -30 c8 -16 15 -31 15 -35 0 -3 -153 -5 -340 -5 -296 0 -340
-2 -340 -15 0 -13 46 -15 353 -15 l352 0 30 -65 31 -65 -247 0 -248 0 -20 -26
c-25 -32 -27 -61 -5 -92 15 -22 17 -22 304 -22 l289 0 16 -30 c8 -16 15 -34
15 -39 0 -7 -95 -12 -277 -13 l-278 -3 -13 -27 c-11 -23 -11 -33 0 -55 l13
-28 295 -5 296 -5 68 -72 68 -73 -618 0 -619 0 0 93 c0 78 -4 100 -26 147 -31
67 -108 146 -166 172 l-43 19 0 1015 c0 728 3 1021 11 1037 6 12 21 30 33 39
20 16 81 18 874 18 l854 0 29 -31z m775 4 c-4 -5 -91 -10 -193 -13 l-185 -5
-24 -28 c-19 -23 -24 -40 -25 -90 -1 -34 -4 -87 -9 -117 -6 -46 -7 -36 -9 63
-1 123 9 164 46 186 21 12 410 15 399 4z m-366 -115 c0 -18 -5 -40 -10 -48 -7
-11 -10 -2 -10 33 0 26 5 47 10 47 6 0 10 -15 10 -32z m-2580 8 c0 -7 -10 -16
-21 -19 -15 -4 -20 -11 -16 -21 6 -14 -10 -16 -123 -16 l-130 0 0 35 0 35 145
0 c117 0 145 -3 145 -14z m2905 -38 c90 -46 130 -178 80 -268 -12 -22 -11 -27
11 -53 23 -28 24 -31 8 -48 -22 -24 -33 -24 -60 2 -20 19 -26 19 -82 8 -57
-12 -62 -11 -115 14 -78 39 -112 90 -112 172 0 82 34 136 108 171 54 26 114
26 162 2z m-2905 -68 c0 -5 -9 -14 -20 -20 -11 -6 -17 -16 -14 -25 5 -13 -13
-15 -125 -15 l-131 0 0 35 0 35 145 0 c86 0 145 -4 145 -10z m2580 -57 c0 -17
-4 -35 -10 -38 -6 -4 -10 14 -10 47 0 38 3 49 10 38 5 -8 10 -29 10 -47z
m-2620 -52 c-8 -5 -68 -11 -133 -13 -89 -2 -117 0 -117 10 0 9 33 12 133 12
80 0 126 -4 117 -9z m2616 -56 c1 -8 -2 -17 -7 -21 -5 -3 -9 7 -9 22 0 27 12
26 16 -1z m-2743 -25 l78 0 -2 -755 c0 -574 -3 -754 -12 -749 -8 5 -8 2 1 -7
16 -17 16 -32 0 -23 -9 6 -9 3 0 -9 10 -11 11 -26 6 -49 -4 -18 -7 -36 -6 -39
1 -5 1 -30 2 -143 1 -43 -9 -66 -26 -59 -10 3 -12 0 -8 -10 3 -8 0 -18 -7 -23
-8 -4 -10 -3 -5 4 4 7 2 12 -3 12 -12 0 -14 -10 -11 -54 1 -22 -2 -27 -13 -23
-24 9 -27 -3 -12 -40 8 -20 15 -38 15 -41 0 -2 -20 -2 -45 0 -50 6 -63 -9 -46
-53 5 -13 10 -19 10 -12 1 17 108 22 108 4 0 -8 -9 -16 -19 -19 -10 -2 -15 -8
-12 -13 3 -5 -1 -9 -8 -10 -7 0 -26 -2 -43 -2 l-30 -2 -1 -110 c-2 -104 -3
-110 -23 -113 l-21 -3 0 1138 c0 626 3 1155 7 1176 5 33 9 38 27 33 12 -3 56
-6 99 -6z m3002 -432 c15 -31 14 -32 -1 -10 -13 18 -26 22 -69 22 -47 0 -53
-3 -59 -23 -3 -13 -17 -29 -31 -35 -40 -19 -42 -14 -7 17 17 17 32 37 32 45 0
13 12 16 60 16 57 0 60 -1 75 -32z m-221 -43 c19 -14 19 -15 1 -15 -22 0 -55
-28 -55 -47 0 -7 -4 -13 -10 -13 -16 0 -12 22 13 57 25 37 25 37 51 18z m236
-57 c85 -43 118 -163 67 -239 -81 -121 -250 -113 -308 15 -24 53 -24 100 2
152 24 50 37 62 86 80 56 19 103 17 153 -8z m-323 -122 c-12 -9 -17 -27 -17
-60 0 -29 -4 -45 -10 -41 -5 3 -10 28 -10 54 0 40 4 50 23 58 28 13 38 6 14
-11z m92 -373 c0 -25 -1 -26 -9 -8 -12 27 -12 35 0 35 6 0 10 -12 9 -27z m41
-12 c0 -5 -7 -11 -15 -15 -9 -3 -15 0 -15 9 0 8 7 15 15 15 8 0 15 -4 15 -9z
m30 -32 c0 -5 -4 -9 -10 -9 -5 0 -10 7 -10 16 0 8 5 12 10 9 6 -3 10 -10 10
-16z m-413 -21 c-3 -7 -5 -2 -5 12 0 14 2 19 5 13 2 -7 2 -19 0 -25z m753 -68
c0 -13 -5 -18 -15 -14 -8 4 -15 1 -15 -5 0 -6 4 -11 9 -11 6 0 3 -12 -5 -27
-8 -18 -14 -58 -14 -108 0 -59 -4 -87 -17 -104 -9 -14 -11 -21 -5 -17 9 5 12
-9 12 -53 0 -79 -12 -91 -98 -93 -37 0 -92 -2 -122 -4 -30 -1 -94 -2 -142 -3
l-88 -1 0 -35 c0 -19 -4 -35 -9 -35 -13 0 -21 118 -21 313 0 164 1 178 20 197
19 19 33 20 265 20 237 0 245 -1 245 -20z m-2415 -40 c-20 -22 -31 -20 -22 5
4 8 14 15 23 15 16 0 16 -2 -1 -20z m144 -39 c16 -16 18 -26 11 -52 -11 -36
-24 -48 -49 -44 -9 2 -19 4 -23 4 -15 2 -38 34 -38 53 0 52 62 76 99 39z m782
-148 c27 -14 30 -18 15 -21 -10 -2 -28 5 -39 17 -26 25 -21 26 24 4z m-1215
-19 c-4 -9 -9 -15 -11 -12 -3 3 -3 13 1 22 4 9 9 15 11 12 3 -3 3 -13 -1 -22z
m1418 -71 c56 -25 103 -48 106 -50 2 -2 -15 -21 -40 -41 -24 -20 -67 -58 -95
-84 -27 -26 -53 -44 -56 -40 -3 4 -28 49 -54 100 l-49 92 40 35 c21 19 41 35
43 35 3 0 50 -21 105 -47z m236 -33 c0 -24 -3 -24 -55 0 l-40 19 48 0 c41 1
47 -2 47 -19z m141 -119 l21 -19 -30 -33 -30 -34 -26 24 c-32 30 -33 45 -4 65
29 21 44 20 69 -3z m-536 -31 c4 -6 -17 -10 -54 -10 -59 0 -61 -1 -61 -25 l0
-25 -197 2 -198 3 -3 24 c-2 13 2 28 10 32 19 12 495 11 503 -1z m444 -54 l23
-24 -94 -95 -93 -95 -28 23 c-15 13 -27 27 -27 32 0 11 173 182 186 182 6 1
21 -10 33 -23z m-1674 -4 c16 -9 8 -10 -37 -5 -31 3 -73 2 -95 -2 l-38 -8 42
-8 c95 -18 194 -92 192 -144 -1 -20 -2 -18 -15 24 -3 11 -10 8 -29 -9 -16 -15
-22 -27 -16 -33 5 -5 7 -16 4 -25 -4 -8 -2 -13 3 -10 5 4 10 -9 11 -28 2 -19
4 -37 4 -41 5 -30 -5 -65 -26 -96 -13 -20 -20 -39 -15 -42 6 -4 10 -15 10 -25
0 -26 -37 -36 -59 -16 -10 9 -35 16 -60 16 -81 0 -130 44 -157 141 -16 58 -38
77 -50 44 -3 -8 -15 -17 -26 -21 -13 -4 -16 -9 -10 -13 8 -5 5 -17 -9 -40 -17
-28 -22 -31 -36 -20 -22 19 -13 128 17 196 30 71 105 139 188 169 43 16 176
14 207 -4z m1926 -127 c21 -21 35 -43 33 -47 -3 -5 -10 -6 -15 -2 -13 8 -39
-14 -39 -33 0 -9 41 -55 91 -103 50 -49 88 -93 85 -99 -5 -7 -1 -8 9 -5 11 5
16 2 15 -7 -4 -26 0 -39 11 -39 8 0 7 6 -2 17 -13 15 -12 15 16 1 26 -14 32
-14 52 -1 13 9 23 20 23 27 0 7 -3 7 -8 1 -4 -5 -15 -16 -24 -23 -14 -11 -16
-11 -12 5 3 12 -18 41 -70 93 -68 68 -81 90 -55 90 12 0 111 -92 195 -182 9
-9 13 -22 8 -29 -4 -8 -3 -10 5 -5 6 4 29 -10 54 -34 25 -24 34 -38 22 -33
-18 6 -19 5 -5 -13 8 -10 -14 7 -49 39 -36 31 -68 57 -71 57 -4 0 -13 -6 -19
-14 -10 -11 -6 -20 16 -40 31 -29 25 -34 -12 -10 -14 9 -25 22 -25 30 0 7 -9
12 -20 11 -20 -1 -29 -17 -10 -17 5 0 20 -11 33 -24 l23 -23 -22 -27 c-13 -14
-21 -33 -18 -41 4 -8 2 -15 -4 -15 -5 0 -12 -10 -15 -21 -5 -20 -11 -21 -50
-16 -31 4 -48 2 -56 -7 -6 -7 -10 -15 -8 -17 1 -3 -22 20 -52 51 -30 30 -58
54 -62 52 -5 -1 -8 4 -7 10 2 7 -3 12 -10 10 -7 -1 -17 9 -22 23 -5 14 -12 25
-15 25 -4 0 -3 -6 1 -12 5 -9 3 -9 -9 1 -9 7 -14 18 -10 24 3 5 2 7 -4 4 -5
-3 -16 2 -25 11 -8 9 -68 68 -132 131 l-117 114 23 26 c13 14 54 56 93 93 l69
68 66 -65 c36 -36 71 -65 78 -65 26 0 10 28 -52 90 -60 61 -64 66 -48 83 15
17 18 15 66 -30 28 -26 67 -66 87 -88z m-708 -44 c8 -33 -41 -41 -244 -41
-173 0 -189 2 -198 18 -20 38 3 42 225 42 201 0 212 -1 217 -19z m1027 9 c0
-5 -8 -10 -17 -10 -10 0 -33 -9 -52 -21 -43 -26 -55 -15 -18 17 28 24 87 33
87 14z m-2210 -4 c0 -3 -4 -8 -10 -11 -5 -3 -10 -1 -10 4 0 6 5 11 10 11 6 0
10 -2 10 -4z m1410 -35 c0 -4 -11 -13 -25 -19 -29 -13 -32 -6 -9 19 16 17 34
17 34 0z m124 -121 c25 -27 46 -54 46 -60 0 -6 4 -9 9 -6 4 3 28 -16 52 -42
24 -26 57 -57 73 -69 16 -13 26 -23 22 -23 -14 0 -82 54 -137 109 -30 31 -74
71 -97 90 -43 35 -52 51 -28 51 7 0 34 -22 60 -50z m936 -5 c26 -32 -13 -81
-47 -59 -35 22 -23 74 17 74 10 0 23 -7 30 -15z m103 -103 c31 -32 34 -74 7
-80 -23 -4 -89 49 -96 77 -5 17 -2 28 11 37 21 16 38 8 78 -34z m-178 3 c0
-25 -4 -31 -27 -33 -19 -2 -28 2 -33 18 -8 27 12 52 39 48 16 -2 21 -10 21
-33z m-2935 -1 c0 -8 -5 -12 -10 -9 -6 4 -8 11 -5 16 9 14 15 11 15 -7z m3013
-56 c8 -12 7 -21 -2 -32 -19 -22 -48 -20 -61 5 -23 41 38 68 63 27z m-977 -69
c3 -5 -253 -9 -597 -9 -399 0 -600 3 -593 10 9 9 1125 20 1167 11 9 -2 20 -7
23 -12z m709 -9 c10 -11 13 -20 7 -20 -6 0 -16 9 -22 20 -6 11 -9 20 -7 20 2
0 12 -9 22 -20z m-415 -6 c0 -8 -19 -13 -24 -6 -3 5 1 9 9 9 8 0 15 -2 15 -3z
m382 -26 c-7 -7 -12 -8 -12 -2 0 14 12 26 19 19 2 -3 -1 -11 -7 -17z m-343
-32 c0 -6 -3 -6 -6 2 -2 6 -10 9 -15 6 -7 -4 -8 -2 -4 4 4 7 1 12 -9 12 -9 0
-13 5 -10 11 8 12 45 -18 44 -35z m405 22 c-5 -7 -2 -9 9 -5 11 4 14 2 11 -8
-3 -8 -12 -11 -20 -8 -16 6 -19 33 -3 33 5 0 7 -5 3 -12z m-2554 -53 c0 -24
-4 -47 -10 -50 -6 -4 -10 15 -10 50 0 35 4 54 10 50 6 -3 10 -26 10 -50z
m-148 -1 c3 -3 4 -14 1 -25 -5 -17 -15 -19 -114 -19 l-109 0 0 25 0 25 108 0
c60 0 111 -3 114 -6z m1428 -14 c42 -22 57 -41 60 -80 4 -46 0 -68 -15 -83 -8
-8 -12 -17 -9 -20 15 -14 -53 -41 -104 -41 -48 0 -57 3 -83 31 -57 65 -43 156
31 195 45 23 71 23 120 -2z m-1381 -66 c37 -8 41 -24 6 -24 -16 0 -25 -6 -25
-15 0 -8 -5 -15 -11 -15 -5 0 -7 5 -3 12 4 7 3 8 -4 4 -7 -4 -12 -14 -12 -22
0 -11 -21 -14 -110 -14 l-110 0 0 40 0 40 119 0 c65 0 133 -3 150 -6z m100
-56 c0 -45 -3 -57 -9 -43 -12 28 -12 105 0 105 6 0 10 -27 9 -62z m641 -23 c0
-13 -27 -15 -185 -15 -158 0 -185 2 -185 15 0 13 27 15 185 15 158 0 185 -2
185 -15z m1765 -53 c-4 -5 -34 24 -55 53 -8 11 2 4 22 -15 20 -19 35 -36 33
-38z m-2517 22 c15 -4 19 -10 13 -18 -9 -11 -11 -17 -11 -37 0 -5 -5 -7 -10
-4 -6 4 -10 3 -9 -2 7 -43 -29 -73 -89 -73 -48 0 -49 1 -87 58 -22 31 -43 63
-48 70 -7 9 15 12 104 12 63 0 124 -3 137 -6z m97 -80 c30 -51 77 -99 118
-120 15 -8 27 -17 27 -19 0 -3 -68 -5 -151 -5 -117 0 -150 3 -146 13 6 15 117
177 122 177 2 0 15 -21 30 -46z m2450 28 c-3 -3 -11 0 -18 7 -9 10 -8 11 6 5
10 -3 15 -9 12 -12z m39 -128 c30 -14 58 -30 61 -35 4 -5 -43 -9 -117 -9
l-123 0 50 34 c28 19 55 34 61 35 7 1 37 -11 68 -25z"/>
<path d="M1830 3643 c-37 -14 -40 -31 -40 -273 0 -217 2 -238 18 -253 16 -15
48 -17 240 -17 187 0 223 2 236 16 14 13 16 51 16 258 0 214 -2 245 -17 257
-12 11 -65 14 -227 16 -116 1 -218 -1 -226 -4z m31 -47 c-7 -8 -15 -84 -20
-187 l-8 -174 -2 181 c0 99 2 184 6 187 3 4 13 7 21 7 11 0 12 -3 3 -14z m234
-60 c39 -16 55 -42 55 -86 0 -30 -37 -80 -58 -80 -5 0 -12 -9 -15 -20 -3 -14
-14 -20 -31 -20 -40 0 -35 42 9 76 36 27 44 51 23 72 -20 20 -56 14 -74 -13
-20 -31 -54 -34 -54 -4 0 30 17 57 48 73 34 19 54 19 97 2z m-15 -266 c0 -30
-34 -43 -54 -21 -20 22 -20 26 0 45 19 20 54 5 54 -24z"/>
<path d="M2402 3628 c-15 -15 -16 -63 -2 -89 10 -18 26 -19 445 -19 381 0 435
2 449 16 19 18 21 75 4 92 -17 17 -879 17 -896 0z m862 -27 c8 -12 -3 -39 -17
-43 -7 -2 -195 -2 -419 0 -386 2 -408 3 -408 21 0 10 3 21 7 24 10 11 831 8
837 -2z"/>
<path d="M2400 3451 c-15 -30 -12 -66 8 -84 17 -15 62 -17 444 -17 399 0 426
1 441 18 19 21 22 54 7 83 -10 18 -26 19 -450 19 -424 0 -440 -1 -450 -19z
m845 -21 c-11 -5 -183 -9 -382 -9 -249 -1 -364 -4 -369 -12 -4 -8 -9 -8 -17 0
-14 14 -30 14 -22 1 4 -6 -1 -7 -11 -3 -13 5 -15 3 -9 -8 6 -11 5 -11 -5 -2
-7 6 -10 19 -7 27 6 14 54 16 424 15 243 0 410 -4 398 -9z m-708 -36 c-3 -3
-12 -4 -19 -1 -8 3 -5 6 6 6 11 1 17 -2 13 -5z"/>
<path d="M2410 3200 c-24 -24 -25 -48 -4 -78 l15 -22 422 0 c466 0 467 0 467
60 0 60 -1 60 -462 60 -405 0 -419 -1 -438 -20z"/>
<path d="M2332 3008 c-16 -16 -16 -170 0 -186 14 -14 944 -17 966 -4 9 6 12
34 10 103 l-3 94 -480 3 c-366 2 -484 -1 -493 -10z m361 -25 c-62 -2 -164 -2
-225 0 -62 1 -12 3 112 3 124 0 174 -2 113 -3z"/>
<path d="M1850 2980 c-43 -43 -14 -110 47 -110 38 0 63 27 63 68 0 56 -70 82
-110 42z m50 -35 c-7 -8 -16 -15 -21 -15 -5 0 -9 7 -9 15 0 9 9 15 21 15 18 0
19 -2 9 -15z"/>
<path d="M2116 2964 c-22 -22 -20 -50 6 -68 19 -13 25 -14 43 -2 26 17 31 49
10 70 -21 20 -39 20 -59 0z"/>
<path d="M1856 2755 c-23 -23 -23 -196 -1 -219 14 -14 95 -15 723 -10 389 3
713 7 720 9 9 4 12 31 10 112 l-3 108 -40 6 c-22 4 -344 7 -716 8 -612 2 -678
0 -693 -14z m50 -40 c-8 -8 -17 -15 -20 -15 -3 0 -6 7 -6 15 0 9 9 15 21 15
18 0 19 -2 5 -15z m1324 4 c-19 -4 -251 -8 -514 -9 -264 0 -490 -3 -503 -6
-13 -4 -20 -11 -17 -18 3 -6 -1 -2 -10 8 -8 10 -13 23 -10 27 3 5 249 9 547 8
324 -1 528 -4 507 -10z m-1202 -18 c21 -11 28 -67 11 -87 -6 -8 -21 -14 -33
-14 -50 1 -73 54 -39 92 18 20 36 23 61 9z m1046 -77 c53 -20 -23 -24 -431
-22 -346 2 -447 6 -451 16 -3 9 88 12 431 12 240 0 442 -3 451 -6z"/>
<path d="M2336 2464 c-20 -19 -23 -173 -4 -192 17 -17 949 -17 966 0 8 8 12
45 12 100 0 76 -2 89 -19 98 -13 6 -182 10 -480 10 -404 0 -461 -2 -475 -16z
m927 -31 c-7 -2 -13 -19 -13 -36 0 -17 -7 -39 -17 -49 -15 -17 -42 -18 -429
-18 -227 0 -419 3 -428 6 -12 4 -16 20 -16 55 l0 49 458 -1 c251 0 451 -3 445
-6z"/>
<path d="M1856 2409 c-48 -38 -23 -109 38 -109 38 0 66 26 66 61 0 30 -9 43
-37 58 -30 15 -36 14 -67 -10z m37 -34 c-12 -9 -19 -10 -22 -3 -4 12 20 29 32
21 4 -3 0 -11 -10 -18z"/>
<path d="M2118 2399 c-36 -20 -13 -79 31 -79 14 0 41 29 41 45 0 17 -27 45
-43 45 -7 0 -20 -5 -29 -11z"/>
<path d="M1921 1872 c-66 -33 -76 -59 -76 -190 0 -110 2 -120 28 -164 36 -63
89 -98 144 -98 32 0 43 4 43 15 0 11 -11 15 -39 15 -83 0 -140 73 -149 190
-10 138 20 210 87 210 34 0 51 18 30 31 -20 12 -30 11 -68 -9z"/>
<path d="M1967 1754 c-9 -9 -9 -206 -1 -228 5 -13 27 -16 135 -16 l130 0 -3
123 -3 122 -126 3 c-69 1 -128 -1 -132 -4z m171 -86 c26 -26 0 -88 -36 -88
-23 0 -52 30 -52 55 0 28 18 45 50 45 14 0 31 -5 38 -12z"/>
<path d="M4058 3524 c-99 -53 -58 -214 54 -214 l32 0 -29 30 -29 30 27 27 27
27 34 -33 34 -33 11 35 c16 47 -5 99 -51 127 -39 23 -73 25 -110 4z"/>
<path d="M1020 3170 c0 -18 6 -20 66 -20 57 0 65 2 62 18 -3 14 -16 18 -66 20
-57 3 -62 1 -62 -18z"/>
<path d="M1027 2984 c-4 -4 -7 -13 -7 -21 0 -10 18 -13 71 -13 62 0 70 2 67
18 -3 13 -15 18 -64 20 -33 2 -63 0 -67 -4z"/>
<path d="M1020 2735 c0 -18 34 -27 91 -23 32 2 45 8 47 21 3 15 -5 17 -67 17
-56 0 -71 -3 -71 -15z"/>
<path d="M1020 2595 c0 -12 14 -15 70 -15 56 0 70 3 70 15 0 12 -14 15 -70 15
-56 0 -70 -3 -70 -15z"/>
<path d="M1020 2460 c0 -18 6 -20 71 -20 62 0 70 2 67 18 -3 14 -16 18 -71 20
-62 3 -67 1 -67 -18z"/>
<path d="M1027 2233 c-4 -3 -7 -12 -7 -20 0 -19 133 -18 149 1 9 11 8 15 -5
20 -21 8 -129 8 -137 -1z"/>
<path d="M1020 2090 c0 -19 5 -21 63 -18 47 2 62 7 62 18 0 11 -15 16 -62 18
-58 3 -63 1 -63 -18z"/>
<path d="M1022 1853 c3 -15 15 -18 73 -18 58 0 70 3 73 18 3 15 -6 17 -73 17
-67 0 -76 -2 -73 -17z"/>
<path d="M1033 1615 c0 -7 6 -11 14 -8 7 3 13 6 13 8 0 2 -6 5 -13 8 -8 3 -14
-1 -14 -8z"/>
<path d="M1116 1622 c-3 -4 4 -9 15 -9 23 -2 25 3 4 10 -8 4 -16 3 -19 -1z"/>
<path d="M1020 1575 c0 -12 14 -15 76 -15 56 0 75 3 72 13 -3 8 -30 13 -76 15
-60 2 -72 0 -72 -13z"/>
<path d="M1045 1407 c-15 -32 -7 -57 19 -57 27 0 32 34 8 60 -17 18 -18 18
-27 -3z"/>
<path d="M3997 2730 c-52 -41 -43 -118 17 -146 41 -20 78 -13 112 21 32 32 31
75 -2 114 -32 38 -87 43 -127 11z"/>
<path d="M4186 1833 c-6 -14 -5 -15 5 -6 7 7 10 15 7 18 -3 3 -9 -2 -12 -12z"/>
<path d="M4219 1835 c-1 -3 -2 -8 -3 -12 -1 -5 -5 -14 -9 -20 -11 -18 1 -16
19 2 9 9 11 15 4 15 -6 0 -8 5 -5 10 3 6 4 10 1 10 -3 0 -7 -2 -7 -5z"/>
<path d="M4138 1783 c7 -3 16 -2 19 1 4 3 -2 6 -13 5 -11 0 -14 -3 -6 -6z"/>
<path d="M1468 1393 c-10 -12 -13 -25 -8 -38 4 -11 5 -24 2 -29 -3 -5 0 -6 6
-2 6 3 13 3 16 -2 6 -11 -26 -12 -39 -1 -6 4 -11 -2 -11 -17 -1 -13 2 -21 7
-18 5 3 9 -2 9 -10 0 -21 28 -46 45 -40 8 4 15 1 15 -5 0 -6 7 -11 15 -11 8 0
15 5 15 11 0 5 4 8 9 5 12 -8 60 49 65 76 4 29 -12 61 -26 52 -6 -4 -8 -3 -5
3 4 6 -1 17 -11 26 -18 16 -37 17 -59 4 -8 -5 -13 -4 -13 2 0 16 -15 13 -32
-6z m12 -13 c0 -5 -5 -10 -11 -10 -5 0 -7 5 -4 10 3 6 8 10 11 10 2 0 4 -4 4
-10z m76 1 c8 6 14 7 14 2 0 -5 -9 -16 -19 -25 -21 -18 -33 -6 -23 21 4 11 7
12 10 3 3 -10 7 -10 18 -1z m-64 -33 c-7 -7 -12 -8 -12 -2 0 6 3 14 7 17 3 4
9 5 12 2 2 -3 -1 -11 -7 -17z"/>
<path d="M3856 1168 c3 -5 10 -6 15 -3 13 9 11 12 -6 12 -8 0 -12 -4 -9 -9z"/>
<path d="M3485 1150 c-3 -5 -5 -10 -3 -11 33 -8 38 -7 27 7 -14 17 -16 17 -24
4z"/>
<path d="M3925 1110 c10 -11 20 -20 23 -20 3 0 -3 9 -13 20 -10 11 -20 20 -23
20 -3 0 3 -9 13 -20z"/>
<path d="M3555 1063 c11 -7 19 -16 18 -18 -7 -12 -2 -25 8 -25 8 0 9 4 0 13
-18 22 -3 26 45 11 24 -7 44 -9 44 -5 0 9 -70 32 -110 36 -23 3 -23 2 -5 -12z"/>
<path d="M3726 1071 c-4 -7 -5 -15 -2 -18 9 -9 19 4 14 18 -4 11 -6 11 -12 0z"/>
<path d="M3640 1005 c0 -8 4 -14 9 -12 8 2 11 -3 11 -18 0 -3 -12 2 -26 12
-27 17 -27 17 -15 -4 17 -32 26 -35 46 -13 10 11 24 20 32 20 24 0 -7 26 -34
28 -15 1 -23 -4 -23 -13z"/>
<path d="M660 2345 c-10 -12 -11 -21 -4 -33 15 -22 27 -24 49 -8 16 12 18 18
9 33 -15 24 -38 27 -54 8z"/>
<path d="M764 1916 c-10 -26 4 -48 28 -44 17 2 23 10 23 28 0 18 -6 26 -23 28
-13 2 -25 -3 -28 -12z"/>
</g>
</svg>
